<?xml version="1.0" encoding="UTF-8" standalone="no"?>
<svg
   xmlns:dc="http://purl.org/dc/elements/1.1/"
   xmlns:cc="http://creativecommons.org/ns#"
   xmlns:rdf="http://www.w3.org/1999/02/22-rdf-syntax-ns#"
   xmlns:svg="http://www.w3.org/2000/svg"
   xmlns="http://www.w3.org/2000/svg"
   xmlns:sodipodi="http://sodipodi.sourceforge.net/DTD/sodipodi-0.dtd"
   xmlns:inkscape="http://www.inkscape.org/namespaces/inkscape"
   width="512"
   height="512"
   viewBox="0 0 135.46666 135.46667"
   version="1.1"
   id="svg8"
   sodipodi:docname="icon.svg"
   inkscape:version="1.0.2 (e86c870879, 2021-01-15)">
  <defs
     id="defs2">
    <rect
       x="-85.136093"
       y="-330.16241"
       width="95.763535"
       height="22.200207"
       id="rect1096" />
    <rect
       x="-85.136093"
       y="-330.16241"
       width="95.763535"
       height="22.200207"
       id="rect1096-3" />
    <rect
       x="-85.136093"
       y="-330.16241"
       width="95.763535"
       height="22.200207"
       id="rect1109" />
    <rect
       x="-85.136093"
       y="-330.16241"
       width="95.763535"
       height="22.200207"
       id="rect1096-37" />
    <rect
       x="-85.136093"
       y="-330.16241"
       width="95.763535"
       height="22.200207"
       id="rect1109-3" />
    <rect
       x="-85.136093"
       y="-330.16241"
       width="95.763535"
       height="22.200207"
       id="rect1096-6" />
    <rect
       x="-85.136093"
       y="-330.16241"
       width="95.763535"
       height="22.200207"
       id="rect1109-5" />
    <rect
       x="-85.136093"
       y="-330.16241"
       width="95.763535"
       height="22.200207"
       id="rect1096-6-5" />
    <rect
       x="-85.136093"
       y="-330.16241"
       width="95.763535"
       height="22.200207"
       id="rect1187" />
    <rect
       x="-85.136093"
       y="-330.16241"
       width="95.763535"
       height="22.200207"
       id="rect1096-6-5-7" />
    <rect
       x="-85.136093"
       y="-330.16241"
       width="95.763535"
       height="22.200207"
       id="rect1224" />
    <rect
       x="-85.136093"
       y="-330.16241"
       width="95.763535"
       height="22.200207"
       id="rect1096-60" />
    <rect
       x="-85.136093"
       y="-330.16241"
       width="95.763535"
       height="22.200207"
       id="rect1261" />
    <rect
       x="-85.136093"
       y="-330.16241"
       width="95.763535"
       height="22.200207"
       id="rect1096-3-1" />
    <rect
       x="-85.136093"
       y="-330.16241"
       width="95.763535"
       height="22.200207"
       id="rect1297" />
    <rect
       x="-85.136093"
       y="-330.16241"
       width="95.763535"
       height="22.200207"
       id="rect1096-37-4" />
    <rect
       x="-85.136093"
       y="-330.16241"
       width="95.763535"
       height="22.200207"
       id="rect1334" />
    <rect
       x="-85.136093"
       y="-330.16241"
       width="95.763535"
       height="22.200207"
       id="rect1096-7" />
    <rect
       x="-85.136093"
       y="-330.16241"
       width="95.763535"
       height="22.200207"
       id="rect1371" />
    <rect
       x="-85.136093"
       y="-330.16241"
       width="95.763535"
       height="22.200207"
       id="rect1096-7-8" />
    <rect
       x="-85.136093"
       y="-330.16241"
       width="95.763535"
       height="22.200207"
       id="rect1407" />
    <rect
       x="-85.136093"
       y="-330.16241"
       width="95.763535"
       height="22.200207"
       id="rect1096-7-2" />
    <rect
       x="-85.136093"
       y="-330.16241"
       width="95.763535"
       height="22.200207"
       id="rect1443" />
    <rect
       x="-85.136093"
       y="-330.16241"
       width="95.763535"
       height="22.200207"
       id="rect1096-7-2-7" />
    <rect
       x="-85.136093"
       y="-330.16241"
       width="95.763535"
       height="22.200207"
       id="rect1479" />
    <rect
       x="-85.136093"
       y="-330.16241"
       width="95.763535"
       height="22.200207"
       id="rect1096-7-2-3" />
    <rect
       x="-85.136093"
       y="-330.16241"
       width="95.763535"
       height="22.200207"
       id="rect1479-9" />
    <rect
       x="-85.136093"
       y="-330.16241"
       width="95.763535"
       height="22.200207"
       id="rect1096-7-2-3-8" />
    <rect
       x="-85.136093"
       y="-330.16241"
       width="95.763535"
       height="22.200207"
       id="rect1537" />
    <rect
       x="-85.136093"
       y="-330.16241"
       width="95.763535"
       height="22.200207"
       id="rect1096-7-0" />
    <rect
       x="-85.136093"
       y="-330.16241"
       width="95.763535"
       height="22.200207"
       id="rect1574" />
    <rect
       x="-85.136093"
       y="-330.16241"
       width="95.763535"
       height="22.200207"
       id="rect1096-7-0-5" />
    <rect
       x="-85.136093"
       y="-330.16241"
       width="95.763535"
       height="22.200207"
       id="rect1684" />
    <rect
       x="-85.136093"
       y="-330.16241"
       width="95.763535"
       height="22.200207"
       id="rect1096-7-0-5-9" />
    <rect
       x="-85.136093"
       y="-330.16241"
       width="95.763535"
       height="22.200207"
       id="rect1721" />
    <rect
       x="-85.136093"
       y="-330.16241"
       width="95.763535"
       height="22.200207"
       id="rect1096-7-0-5-7" />
    <rect
       x="-85.136093"
       y="-330.16241"
       width="95.763535"
       height="22.200207"
       id="rect1768" />
    <rect
       x="-85.136093"
       y="-330.16241"
       width="95.763535"
       height="22.200207"
       id="rect1096-7-2-3-9" />
    <rect
       x="-85.136093"
       y="-330.16241"
       width="95.763535"
       height="22.200207"
       id="rect1843" />
    <rect
       x="-85.136093"
       y="-330.16241"
       width="95.763535"
       height="22.200207"
       id="rect1096-7-2-3-5" />
    <rect
       x="-85.136093"
       y="-330.16241"
       width="95.763535"
       height="22.200207"
       id="rect1843-7" />
    <rect
       x="-85.136093"
       y="-330.16241"
       width="95.763535"
       height="22.200207"
       id="rect1096-7-0-53" />
    <rect
       x="-85.136093"
       y="-330.16241"
       width="95.763535"
       height="22.200207"
       id="rect1955" />
    <rect
       x="-85.136093"
       y="-330.16241"
       width="95.763535"
       height="22.200207"
       id="rect1096-7-0-53-0" />
    <rect
       x="-85.136093"
       y="-330.16241"
       width="95.763535"
       height="22.200207"
       id="rect1992" />
    <rect
       x="-85.136093"
       y="-330.16241"
       width="95.763535"
       height="22.200207"
       id="rect1096-7-0-53-0-0" />
    <rect
       x="-85.136093"
       y="-330.16241"
       width="95.763535"
       height="22.200207"
       id="rect2028" />
    <rect
       x="-85.136093"
       y="-330.16241"
       width="95.763535"
       height="22.200207"
       id="rect1096-6-8" />
    <rect
       x="-85.136093"
       y="-330.16241"
       width="95.763535"
       height="22.200207"
       id="rect2222" />
    <rect
       x="-85.136093"
       y="-330.16241"
       width="95.763535"
       height="22.200207"
       id="rect1096-7-0-5-4" />
    <rect
       x="-85.136093"
       y="-330.16241"
       width="95.763535"
       height="22.200207"
       id="rect2345" />
    <rect
       x="-85.136093"
       y="-330.16241"
       width="95.763535"
       height="22.200207"
       id="rect1096-7-0-5-2" />
    <rect
       x="-85.136093"
       y="-330.16241"
       width="95.763535"
       height="22.200207"
       id="rect2345-8" />
    <rect
       x="-85.136093"
       y="-330.16241"
       width="95.763535"
       height="22.200207"
       id="rect1096-7-0-5-4-0" />
    <rect
       x="-85.136093"
       y="-330.16241"
       width="95.763535"
       height="22.200207"
       id="rect2436" />
    <rect
       x="-85.136093"
       y="-330.16241"
       width="95.763535"
       height="22.200207"
       id="rect1096-7-0-5-2-3" />
    <rect
       x="-85.136093"
       y="-330.16241"
       width="95.763535"
       height="22.200207"
       id="rect2481" />
    <rect
       x="-85.136093"
       y="-330.16241"
       width="95.763535"
       height="22.200207"
       id="rect1096-6-8-6" />
    <rect
       x="-85.136093"
       y="-330.16241"
       width="95.763535"
       height="22.200207"
       id="rect2526" />
    <rect
       x="-85.136093"
       y="-330.16241"
       width="95.763535"
       height="22.200207"
       id="rect1096-7-0-5-4-4" />
    <rect
       x="-85.136093"
       y="-330.16241"
       width="95.763535"
       height="22.200207"
       id="rect2529" />
    <rect
       x="-85.136093"
       y="-330.16241"
       width="95.763535"
       height="22.200207"
       id="rect1096-7-0-5-2-5" />
    <rect
       x="-85.136093"
       y="-330.16241"
       width="95.763535"
       height="22.200207"
       id="rect2532" />
    <rect
       x="-85.136093"
       y="-330.16241"
       width="95.763535"
       height="22.200207"
       id="rect1096-7-0-5-4-0-2" />
    <rect
       x="-85.136093"
       y="-330.16241"
       width="95.763535"
       height="22.200207"
       id="rect2535" />
    <rect
       x="-85.136093"
       y="-330.16241"
       width="95.763535"
       height="22.200207"
       id="rect1096-7-0-5-2-3-0" />
    <rect
       x="-85.136093"
       y="-330.16241"
       width="95.763535"
       height="22.200207"
       id="rect2538" />
    <rect
       x="-85.136093"
       y="-330.16241"
       width="95.763535"
       height="22.200207"
       id="rect1096-7-0-5-2-3-0-0" />
    <rect
       x="-85.136093"
       y="-330.16241"
       width="95.763535"
       height="22.200207"
       id="rect2699" />
    <rect
       x="-85.136093"
       y="-330.16241"
       width="95.763535"
       height="22.200207"
       id="rect1096-7-0-5-4-4-6" />
    <rect
       x="-85.136093"
       y="-330.16241"
       width="95.763535"
       height="22.200207"
       id="rect2740" />
  </defs>
  <sodipodi:namedview
     id="base"
     pagecolor="#ffffff"
     bordercolor="#666666"
     borderopacity="1.0"
     inkscape:pageopacity="0.0"
     inkscape:pageshadow="2"
     inkscape:zoom="0.49497475"
     inkscape:cx="380.18013"
     inkscape:cy="380.38379"
     inkscape:document-units="mm"
     inkscape:current-layer="layer1"
     inkscape:document-rotation="0"
     showgrid="false"
     inkscape:window-width="1440"
     inkscape:window-height="850"
     inkscape:window-x="1920"
     inkscape:window-y="24"
     inkscape:window-maximized="1"
     inkscape:pagecheckerboard="true"
     units="px" />
  <metadata
     id="metadata5">
    <rdf:RDF>
      <cc:Work
         rdf:about="">
        <dc:format>image/svg+xml</dc:format>
        <dc:type
           rdf:resource="http://purl.org/dc/dcmitype/StillImage" />
        <dc:title></dc:title>
      </cc:Work>
    </rdf:RDF>
  </metadata>
  <g
     inkscape:label="Layer 1"
     inkscape:groupmode="layer"
     id="layer1">
    <rect
       style="fill:#8ecae6;fill-opacity:0;stroke:none;stroke-width:0.265;stroke-miterlimit:4;stroke-dasharray:none"
       id="rect10"
       width="47.866402"
       height="121.66914"
       x="72.365463"
       y="-228.85844" />
    <g
       id="g2801"
       transform="matrix(2.9297646,0,0,2.9297646,593.55484,-657.00722)">
      <rect
         style="fill:#ffffff;fill-opacity:1;stroke:none;stroke-width:0.491045;stroke-miterlimit:4;stroke-dasharray:none;stroke-opacity:1"
         id="rect2796"
         width="31.138813"
         height="41.732304"
         x="-192.74724"
         y="228.75833"
         ry="5.6629562" />
      <rect
         style="fill:#fb8500;fill-opacity:1;stroke:none;stroke-width:0.138164;stroke-miterlimit:4;stroke-dasharray:none;stroke-opacity:1"
         id="rect2794"
         width="23.740999"
         height="6.1547379"
         x="-266.25677"
         y="-171.85329"
         ry="1.3415523"
         transform="rotate(-90)" />
      <rect
         style="fill:#12242e;fill-opacity:1;stroke:none;stroke-width:0.264596;stroke-miterlimit:4;stroke-dasharray:none;stroke-opacity:1"
         id="rect2792"
         width="17.202"
         height="17.202"
         x="-197.34294"
         y="224.25256"
         ry="4.0898333" />
    </g>
  </g>
</svg>
